<?xml version="1.0" encoding="UTF-8"?>
<svg xmlns="http://www.w3.org/2000/svg" xmlns:xlink="http://www.w3.org/1999/xlink" width="421.820007" height="426.540009" viewBox="0 0 421.820007 426.540009" version="1.1">
<g id="surface1">
<path style=" stroke:none;fill-rule:nonzero;fill:rgb(0%,0%,0%);fill-opacity:1;" d="M 249.21875 173.921875 C 248.015625 174.691406 246.777344 175.441406 245.507812 176.179688 L 297.761719 213.675781 L 278.300781 231.855469 C 276.832031 230.410156 275.300781 228.988281 273.710938 227.59375 C 253.433594 209.855469 222.390625 199.445312 180.574219 196.367188 C 207.433594 192.449219 229.082031 185.722656 245.507812 176.183594 L 218.28125 156.644531 C 214.980469 163.101562 210.738281 168.558594 205.554688 173.015625 C 191.253906 185.328125 164.554688 191.480469 125.453125 191.480469 C 122.375 191.480469 118.574219 191.390625 114.050781 191.210938 L 114.050781 81.847656 L 218.285156 156.644531 C 218.894531 155.453125 219.472656 154.226562 220.019531 152.964844 L 114.050781 76.925781 L 114.050781 63.707031 L 226.933594 108.035156 C 226.984375 109.746094 227.007812 111.496094 227.007812 113.28125 C 227.007812 128.988281 224.675781 142.21875 220.019531 152.96875 Z M 249.21875 173.921875 C 252.605469 171.757812 255.746094 169.464844 258.640625 167.039062 C 270.730469 156.910156 278.59375 144.480469 282.230469 129.742188 L 226.933594 108.027344 C 226.890625 106.542969 226.832031 105.089844 226.75 103.660156 L 283.09375 125.785156 C 282.839844 127.121094 282.550781 128.441406 282.230469 129.742188 L 324.148438 146.203125 L 322.773438 149.703125 L 321.71875 152.390625 L 324.605469 152.433594 L 341.007812 152.6875 L 346.339844 152.769531 L 330.183594 138.222656 L 328.039062 136.292969 L 326.984375 138.980469 L 325.609375 142.480469 L 283.09375 125.785156 C 284.078125 120.617188 284.570312 115.179688 284.570312 109.476562 C 284.570312 90.683594 279.277344 74.9375 268.683594 62.246094 L 209.820312 56.5625 C 213.257812 60.179688 216.179688 64.242188 218.589844 68.746094 C 223.222656 77.417969 225.945312 89.058594 226.75 103.660156 L 114.046875 59.40625 L 114.046875 47.3125 L 209.820312 56.5625 C 208.320312 54.984375 206.726562 53.492188 205.03125 52.082031 L 114.046875 43.292969 L 114.046875 36.707031 C 121.46875 36.164062 128.710938 35.890625 135.769531 35.890625 C 162.921875 35.890625 182.109375 38.742188 193.332031 44.445312 C 197.644531 46.636719 201.542969 49.179688 205.027344 52.082031 L 264.671875 57.839844 C 266.082031 59.265625 267.417969 60.734375 268.679688 62.246094 L 323.136719 67.503906 L 322.777344 71.246094 L 322.5 74.121094 L 346.277344 67.730469 L 326.753906 58.175781 L 324.160156 56.90625 L 323.882812 59.78125 L 323.519531 63.523438 L 264.671875 57.839844 C 241.398438 34.339844 197.707031 22.585938 133.597656 22.585938 L 95.738281 23.777344 C 93.800781 19.402344 91.035156 15.304688 87.449219 11.71875 C 71.828125 -3.902344 46.503906 -3.902344 30.882812 11.71875 C 26.71875 15.882812 23.664062 20.738281 21.71875 25.914062 L 4.078125 26.386719 L 4.078125 38.878906 L 11.136719 38.878906 C 13.945312 38.878906 16.605469 38.914062 19.117188 38.988281 C 19.238281 34.570312 20.144531 30.105469 21.722656 25.914062 L 64.628906 24.757812 L 95.742188 23.777344 C 98.023438 28.925781 99.164062 34.453125 99.167969 39.984375 C 99.183594 41.691406 99.128906 41.859375 99.128906 41.859375 L 114.046875 43.292969 L 114.046875 47.3125 L 98.792969 45.839844 C 98.3125 48.835938 98.328125 49.226562 97.140625 52.765625 L 114.046875 59.40625 L 114.046875 63.703125 L 95.679688 56.488281 C 94.816406 58.535156 94.367188 59.351562 92.835938 61.703125 L 114.050781 76.921875 L 114.050781 81.847656 L 90.503906 64.953125 C 87.972656 67.847656 87.738281 67.992188 87.453125 68.289062 C 79.867188 75.875 69.996094 79.773438 60.054688 79.996094 C 59.628906 71.722656 59.027344 65.621094 58.25 61.6875 C 56.53125 52.996094 52.910156 47.023438 47.386719 43.765625 C 42.710938 41.007812 33.269531 39.476562 19.179688 39.054688 C 18.929688 49.605469 22.832031 60.238281 30.882812 68.289062 C 38.921875 76.324219 49.527344 80.226562 60.054688 79.996094 C 60.570312 90 60.828125 103.175781 60.828125 119.523438 L 60.828125 298.734375 C 60.828125 329.507812 60.015625 349.105469 58.386719 357.519531 C 56.757812 365.9375 52.910156 372.136719 46.84375 376.121094 C 40.78125 380.105469 29.875 382.09375 14.125 382.09375 L 0.00390625 382.09375 L 0.00390625 394.585938 L 92.578125 394.585938 C 85.851562 381.304688 88.035156 364.667969 99.136719 353.570312 C 103.738281 348.964844 109.292969 345.894531 115.167969 344.359375 C 115.394531 347.949219 115.65625 350.84375 115.949219 353.039062 C 117.21875 362.453125 120.613281 369.605469 126.132812 374.492188 C 131.65625 379.382812 142.65625 381.816406 158.949219 381.816406 C 159.101562 381.816406 159.324219 381.816406 159.5 381.816406 C 160.375 372.109375 157.164062 362.089844 150.050781 354.46875 L 151.226562 355.992188 L 243.882812 269.484375 C 245.125 276.636719 245.742188 284.398438 245.742188 292.761719 C 245.742188 300.609375 245.238281 307.9375 244.226562 314.746094 L 154.671875 360.730469 L 156.460938 364.289062 L 243.390625 319.671875 C 243.699219 318.0625 243.976562 316.417969 244.226562 314.746094 L 303.640625 284.261719 C 301.738281 265.292969 294.222656 248.78125 281.09375 234.722656 L 243.882812 269.480469 C 243.613281 267.910156 243.308594 266.367188 242.976562 264.855469 L 148.5625 353.066406 L 150.023438 354.433594 C 149.75 354.140625 149.472656 353.851562 149.1875 353.566406 C 139.96875 344.351562 126.929688 341.28125 115.167969 344.359375 C 114.425781 332.574219 114.050781 313.292969 114.050781 286.515625 L 114.050781 204.511719 C 121.292969 204.148438 128.171875 203.96875 134.6875 203.96875 C 175.960938 203.96875 204.789062 211.164062 221.171875 225.554688 C 232.058594 235.117188 239.328125 248.21875 242.980469 264.851562 L 278.304688 231.851562 C 279.261719 232.796875 280.191406 233.753906 281.09375 234.71875 L 301.078125 216.050781 L 326.550781 234.328125 L 324.359375 237.382812 L 322.675781 239.726562 L 346.449219 246.144531 L 343.484375 241.710938 L 334.359375 228.078125 L 332.757812 225.679688 L 331.074219 228.023438 L 328.882812 231.078125 L 304.058594 213.265625 L 331.039062 188.058594 L 333.605469 190.808594 L 335.578125 192.917969 L 336.859375 190.332031 L 344.152344 175.636719 L 346.523438 170.859375 L 323.773438 180.28125 L 325.742188 182.390625 L 328.308594 185.136719 L 300.746094 210.890625 Z M 243.386719 319.671875 C 240.1875 336.304688 233.734375 349.601562 224.019531 359.558594 C 222.457031 361.160156 220.808594 362.675781 219.078125 364.105469 L 281.917969 355.855469 C 280.554688 357.4375 279.15625 358.964844 277.71875 360.441406 L 323.683594 354.402344 L 324.175781 358.128906 L 324.550781 360.992188 L 346.285156 349.414062 L 322.300781 343.847656 L 322.675781 346.707031 L 323.164062 350.4375 L 281.917969 355.855469 C 282.445312 355.242188 282.96875 354.621094 283.484375 353.992188 C 297.242188 337.246094 304.121094 317.289062 304.121094 294.121094 C 304.121094 292.253906 304.070312 290.410156 303.972656 288.585938 Z M 277.71875 360.4375 L 212.179688 369.042969 C 214.59375 367.535156 216.898438 365.890625 219.050781 364.113281 L 158.988281 372 L 159.511719 375.964844 L 212.210938 369.042969 C 198.714844 377.480469 181.140625 381.738281 159.496094 381.820312 C 159.09375 386.175781 157.796875 390.5 155.789062 394.496094 C 186.558594 394 211.519531 391.453125 230.671875 386.84375 C 249.238281 382.378906 264.917969 373.578125 277.722656 360.4375 Z M 303.636719 284.261719 C 303.78125 285.6875 303.890625 287.128906 303.972656 288.585938 L 326.773438 276.886719 L 328.492188 280.230469 L 329.808594 282.796875 L 342.789062 268.527344 L 346.375 264.582031 L 321.914062 267.414062 L 324.949219 273.324219 Z M 92.578125 394.585938 C 94.226562 397.839844 96.414062 400.894531 99.132812 403.617188 C 112.957031 417.441406 135.363281 417.441406 149.183594 403.617188 C 151.929688 400.871094 154.132812 397.785156 155.785156 394.496094 C 152.09375 394.554688 148.320312 394.585938 144.460938 394.585938 Z M 92.578125 394.585938 "/>
<path style=" stroke:none;fill-rule:nonzero;fill:rgb(0%,0%,0%);fill-opacity:1;" d="M 412.160156 349.398438 C 412.160156 366.796875 398.058594 380.898438 380.660156 380.898438 C 363.261719 380.898438 349.160156 366.796875 349.160156 349.398438 C 349.160156 332.003906 363.261719 317.898438 380.660156 317.898438 C 398.058594 317.898438 412.160156 332.003906 412.160156 349.398438 Z M 412.160156 349.398438 "/>
<path style=" stroke:none;fill-rule:nonzero;fill:rgb(0%,0%,0%);fill-opacity:1;" d="M 412.160156 67.921875 C 412.160156 85.316406 398.058594 99.421875 380.660156 99.421875 C 363.261719 99.421875 349.160156 85.316406 349.160156 67.921875 C 349.160156 50.523438 363.261719 36.421875 380.660156 36.421875 C 398.058594 36.421875 412.160156 50.523438 412.160156 67.921875 Z M 412.160156 67.921875 "/>
<path style=" stroke:none;fill-rule:nonzero;fill:rgb(0%,0%,0%);fill-opacity:1;" d="M 412.160156 255.578125 C 412.160156 272.976562 398.058594 287.078125 380.660156 287.078125 C 363.261719 287.078125 349.160156 272.976562 349.160156 255.578125 C 349.160156 238.183594 363.261719 224.078125 380.660156 224.078125 C 398.058594 224.078125 412.160156 238.183594 412.160156 255.578125 Z M 412.160156 255.578125 "/>
<path style=" stroke:none;fill-rule:nonzero;fill:rgb(0%,0%,0%);fill-opacity:1;" d="M 412.160156 161.738281 C 412.160156 179.136719 398.058594 193.238281 380.660156 193.238281 C 363.261719 193.238281 349.160156 179.136719 349.160156 161.738281 C 349.160156 144.34375 363.261719 130.238281 380.660156 130.238281 C 398.058594 130.238281 412.160156 144.34375 412.160156 161.738281 Z M 412.160156 161.738281 "/>
</g>
</svg>
